<?xml version="1.0" encoding="UTF-8"?>
<svg version="1.1" xmlns="http://www.w3.org/2000/svg" width="500" height="500">
<path d="M0 0 C165 0 330 0 500 0 C500 165 500 330 500 500 C335 500 170 500 0 500 C0 335 0 170 0 0 Z " fill="#FDFDFE" transform="translate(0,0)"/>
<path d="M0 0 C0.87011719 0.43183594 1.74023438 0.86367187 2.63671875 1.30859375 C22.58175071 11.57319179 34.84160484 27.93504848 42.08984375 48.74609375 C44.00284778 55.58528841 44.18244093 62.26521134 44.1875 69.3125 C44.19974609 70.19873047 44.21199219 71.08496094 44.22460938 71.99804688 C44.24514542 81.38301886 42.49369371 89.79255988 38.875 98.4375 C38.57005615 99.16904297 38.2651123 99.90058594 37.95092773 100.65429688 C35.13822159 107.13143911 31.52802638 112.57689863 27 118 C26.39671875 118.77601563 25.7934375 119.55203125 25.171875 120.3515625 C18.22031604 128.85115769 9.14042824 134.93359876 -1 139 C-0.31033438 132.11333895 1.72139305 125.67930583 3.6875 119.0625 C4.07765457 117.73631416 4.46728538 116.40997414 4.85644531 115.08349609 C5.73284153 112.09787092 6.61168828 109.11297958 7.49169922 106.12841797 C9.18407275 100.38184895 10.86001907 94.63051935 12.53515625 88.87890625 C12.841082 87.82862747 13.14700775 86.77834869 13.46220398 85.69624329 C14.0836042 83.56279261 14.70497766 81.42933415 15.32632446 79.29586792 C16.52000044 75.19812071 17.71436986 71.10057716 18.9103241 67.00349426 C19.47493208 65.06721918 20.03812256 63.13053012 20.59980774 61.19340515 C21.88561193 56.76730711 23.19266152 52.35121257 24.56835938 47.95214844 C24.80842712 47.17346405 25.04849487 46.39477966 25.2958374 45.59249878 C25.73885244 44.16070136 26.19082886 42.73162996 26.65386963 41.30618286 C27.82172421 37.50413235 28.17542969 34.82977364 27 31 C26.81937012 31.65258789 26.63874023 32.30517578 26.45263672 32.97753906 C22.67300872 46.61094138 18.78710971 60.20139431 14.68212891 73.74023438 C12.74784233 80.14816443 10.879004 86.57569581 9 93 C8.73574219 93.90234375 8.47148437 94.8046875 8.19921875 95.734375 C4.71319817 107.64096583 1.25208129 119.55395959 -2.13452148 131.48925781 C-2.36598877 132.30362305 -2.59745605 133.11798828 -2.8359375 133.95703125 C-3.03751465 134.66835205 -3.2390918 135.37967285 -3.44677734 136.11254883 C-3.92759577 137.75297568 -4.45942747 139.37828241 -5 141 C-5.66 141 -6.32 141 -7 141 C-6.45340284 133.90152486 -4.86380945 127.63781223 -2.6875 120.875 C-2.04998812 118.84440661 -1.41457279 116.81315382 -0.78125 114.78125 C-0.32105469 113.30591797 -0.32105469 113.30591797 0.1484375 111.80078125 C1.64095016 106.8919208 2.91823808 101.93420779 4.17578125 96.9609375 C5 94 5 94 5.97045898 91.61816406 C6.94632647 89.13649395 7.65495524 86.733976 8.296875 84.1484375 C8.53043701 83.22385742 8.76399902 82.29927734 9.00463867 81.34667969 C9.25060791 80.36602539 9.49657715 79.38537109 9.75 78.375 C11.69326603 70.7612101 13.77623155 63.22918648 16.1875 55.75 C16.43806152 54.97164795 16.68862305 54.1932959 16.94677734 53.39135742 C17.41965358 51.92379411 17.89262932 50.45626287 18.36572266 48.98876953 C21.4561189 39.68966591 21.4561189 39.68966591 22 30 C16.0649711 28.08946141 10.19927954 27.24090966 4.01953125 26.4921875 C2.97028976 26.36184113 1.92104828 26.23149475 0.8400116 26.09719849 C-1.37429724 25.82385697 -3.58896336 25.55339609 -5.80395508 25.28564453 C-9.16026451 24.87830544 -12.51466875 24.45732857 -15.86914062 24.03515625 C-18.03114818 23.77000183 -20.19325475 23.5056532 -22.35546875 23.2421875 C-23.83734932 23.05473465 -23.83734932 23.05473465 -25.34916687 22.86349487 C-32.25872563 22.04324435 -39.04511727 21.86291692 -46 22 C-46.29993362 22.75782776 -46.59986725 23.51565552 -46.90888977 24.29644775 C-48.23079843 27.5718722 -49.69256134 30.77624417 -51.16796875 33.984375 C-51.47939819 34.66420441 -51.79082764 35.34403381 -52.11169434 36.04446411 C-52.7842007 37.51227244 -53.45722253 38.97984469 -54.13070679 40.44720459 C-55.94400758 44.3984608 -57.7529177 48.3517273 -59.5625 52.3046875 C-59.93356369 53.1149942 -60.30462738 53.9253009 -60.68693542 54.76016235 C-64.36498935 62.79334956 -68.03063811 70.83214509 -71.6875 78.875 C-71.99216187 79.54502045 -72.29682373 80.21504089 -72.61071777 80.90536499 C-79.12875564 95.24561072 -85.5749304 109.61789301 -92 124 C-92.33 124 -92.66 124 -93 124 C-93.11214844 123.07380859 -93.11214844 123.07380859 -93.2265625 122.12890625 C-93.96807677 117.352682 -94.88181743 113.74686561 -97.75 109.8125 C-109.24488823 93.8943337 -110.55003443 74.0859787 -108.60546875 55.16015625 C-105.36340579 36.90002101 -93.75339388 18.67760054 -78.91015625 7.71875 C-56.09235002 -8.01145932 -25.374922 -13.48757115 0 0 Z " fill="#AD6BDC" transform="translate(282,156)"/>
<path d="M0 0 C6.90587449 -0.15646678 13.47636333 0.42635318 20.3125 1.375 C21.32924805 1.51147949 22.34599609 1.64795898 23.39355469 1.78857422 C29.42423351 2.60883156 35.42620818 3.53129195 41.41796875 4.6015625 C45.17006296 5.18055434 48.93436727 5.4337367 52.72265625 5.65625 C55 6 55 6 58 8 C56.96578601 13.42237428 55.48743505 18.6871427 54 24 C53.69529785 25.08925781 53.3905957 26.17851562 53.07666016 27.30078125 C49.94303456 38.38537373 46.51247457 49.37269761 43.06640625 60.36328125 C41.4203163 65.62143903 39.83701805 70.89301029 38.3125 76.1875 C36.5831599 82.16732069 34.70695767 88.09072105 32.75 94 C32.3619519 95.17792114 32.3619519 95.17792114 31.96606445 96.37963867 C30.12354633 101.87645367 30.12354633 101.87645367 29 103 C19.21544899 102.91637136 7.71810013 101.29634485 0 95 C-3.50617864 92.66254758 -4.36716506 92.90696976 -8.4375 93.1875 C-17.82028424 93.37876853 -27.11544147 90.91796775 -36 88 C-36.33 87.67 -36.66 87.34 -37 87 C-36.57031508 81.87655697 -35.26943211 77.75466108 -33.19921875 73.0703125 C-32.92157181 72.43568085 -32.64392487 71.80104919 -32.35786438 71.14718628 C-31.475791 69.13613249 -30.58191176 67.13059196 -29.6875 65.125 C-29.09881994 63.78810775 -28.51092291 62.45087043 -27.92382812 61.11328125 C-26.29312804 57.40410453 -24.64807184 53.70149037 -23 50 C-22.32681977 48.48307431 -21.65364217 46.96614746 -20.98046875 45.44921875 C-20.32040048 43.96610668 -19.66023376 42.48303841 -19 41 C-18.52941162 39.94103516 -18.05882324 38.88207031 -17.57397461 37.79101562 C-16.20950747 34.72299782 -14.84261685 31.65609106 -13.47363281 28.59008789 C-12.9104698 27.32750752 -12.34828583 26.06448998 -11.78710938 24.80102539 C-8.06594559 16.42513887 -4.17753081 8.15950556 0 0 Z " fill="#5B48BC" transform="translate(240,182)"/>
<path d="M0 0 C2.4375 0.375 2.4375 0.375 5 1 C7.23167185 0.63143136 7.23167185 0.63143136 9 0 C9 0.66 9 1.32 9 2 C12.465 1.505 12.465 1.505 16 1 C15.566875 2.04800781 15.566875 2.04800781 15.125 3.1171875 C14.75375 4.02726563 14.3825 4.93734375 14 5.875 C13.62875 6.77992188 13.2575 7.68484375 12.875 8.6171875 C11.88509774 10.88983858 11.88509774 10.88983858 12 13 C12.7425 12.773125 13.485 12.54625 14.25 12.3125 C17 12 17 12 19.3125 13.4375 C19.869375 13.953125 20.42625 14.46875 21 15 C20.46543312 20.29660637 19.1146757 24.65455816 16.89453125 29.50390625 C16.57872604 30.2118483 16.26292084 30.91979034 15.93754578 31.64918518 C14.90467659 33.95769766 13.85892006 36.26010224 12.8125 38.5625 C12.0880006 40.17342213 11.36404878 41.78459064 10.640625 43.39599609 C5.45262824 54.9218154 0.1378298 66.38836443 -5.23950195 77.8269043 C-9.62560536 87.16120251 -13.87567309 96.54735014 -18 106 C-18.33 106 -18.66 106 -19 106 C-19.11214844 105.07380859 -19.11214844 105.07380859 -19.2265625 104.12890625 C-19.96807677 99.352682 -20.88181743 95.74686561 -23.75 91.8125 C-35.24488823 75.8943337 -36.55003443 56.0859787 -34.60546875 37.16015625 C-32.4901444 25.24610364 -26.46807656 11.84277021 -18 3 C-15 1 -15 1 -12.875 1.3125 C-11 2 -11 2 -10 3 C-8.68 2.34 -7.36 1.68 -6 1 C-5.01 1.66 -4.02 2.32 -3 3 C-2.608125 2.484375 -2.21625 1.96875 -1.8125 1.4375 C-1.214375 0.963125 -0.61625 0.48875 0 0 Z " fill="#9862D4" transform="translate(208,174)"/>
<path d="M0 0 C2.44006411 -0.05470141 4.77967158 0.10616398 7.20849609 0.34936523 C8.09746582 0.43798828 8.98643555 0.52661133 9.90234375 0.61791992 C12.78221318 0.94500626 15.65015521 1.32598027 18.52099609 1.72436523 C19.53774414 1.86084473 20.55449219 1.99732422 21.60205078 2.13793945 C27.63272961 2.95819679 33.63470428 3.88065718 39.62646484 4.95092773 C43.37855905 5.52991958 47.14286336 5.78310193 50.93115234 6.00561523 C53.20849609 6.34936523 53.20849609 6.34936523 56.20849609 8.34936523 C55.17428042 13.77174835 53.69584135 19.0364738 52.20849609 24.34936523 C51.90741943 25.42629639 51.60634277 26.50322754 51.29614258 27.61279297 C47.53016799 40.93876872 43.37663798 54.14479419 39.20849609 67.34936523 C36.20849609 67.34936523 36.20849609 67.34936523 34.52099609 65.84936523 C34.08787109 65.35436523 33.65474609 64.85936523 33.20849609 64.34936523 C32.87849609 65.00936523 32.54849609 65.66936523 32.20849609 66.34936523 C31.54849609 66.34936523 30.88849609 66.34936523 30.20849609 66.34936523 C30.53849609 67.33936523 30.86849609 68.32936523 31.20849609 69.34936523 C29.88849609 69.01936523 28.56849609 68.68936523 27.20849609 68.34936523 C27.20849609 67.35936523 27.20849609 66.36936523 27.20849609 65.34936523 C24.16715118 67.01860594 24.16715118 67.01860594 23.20849609 69.34936523 C23.20849609 70.33936523 23.20849609 71.32936523 23.20849609 72.34936523 C21.22849609 72.84436523 21.22849609 72.84436523 19.20849609 73.34936523 C18.54849609 72.02936523 17.88849609 70.70936523 17.20849609 69.34936523 C16.44537109 69.57624023 15.68224609 69.80311523 14.89599609 70.03686523 C14.00912109 70.13999023 13.12224609 70.24311523 12.20849609 70.34936523 C10.64599609 68.97436523 10.64599609 68.97436523 9.20849609 67.34936523 C7.10516718 66.63488881 7.10516718 66.63488881 5.20849609 66.34936523 C4.87849609 67.33936523 4.54849609 68.32936523 4.20849609 69.34936523 C3.54849609 68.68936523 2.88849609 68.02936523 2.20849609 67.34936523 C3.82118301 64.63711905 5.45751484 61.97583712 7.20849609 59.34936523 C8.52849609 59.67936523 9.84849609 60.00936523 11.20849609 60.34936523 C11.20849609 59.68936523 11.20849609 59.02936523 11.20849609 58.34936523 C9.55849609 58.34936523 7.90849609 58.34936523 6.20849609 58.34936523 C5.71349609 55.87436523 5.71349609 55.87436523 5.20849609 53.34936523 C17.45849609 44.34936523 17.45849609 44.34936523 21.20849609 44.34936523 C20.21849609 41.37936523 19.22849609 38.40936523 18.20849609 35.34936523 C15.23849609 35.84436523 15.23849609 35.84436523 12.20849609 36.34936523 C12.20849609 35.35936523 12.20849609 34.36936523 12.20849609 33.34936523 C11.56912109 33.24624023 10.92974609 33.14311523 10.27099609 33.03686523 C9.59037109 32.80999023 8.90974609 32.58311523 8.20849609 32.34936523 C7.87849609 31.35936523 7.54849609 30.36936523 7.20849609 29.34936523 C4.42735554 27.0154532 4.42735554 27.0154532 1.52099609 27.72436523 C0.75787109 27.93061523 -0.00525391 28.13686523 -0.79150391 28.34936523 C-1.12150391 30.32936523 -1.45150391 32.30936523 -1.79150391 34.34936523 C-3.04704397 32.01764797 -3.96609042 29.81469404 -4.79150391 27.28686523 C-5.69828347 24.21081476 -5.69828347 24.21081476 -7.79150391 21.34936523 C-8.12150391 22.00936523 -8.45150391 22.66936523 -8.79150391 23.34936523 C-9.45150391 23.34936523 -10.11150391 23.34936523 -10.79150391 23.34936523 C-11.12150391 24.66936523 -11.45150391 25.98936523 -11.79150391 27.34936523 C-12.45150391 27.34936523 -13.11150391 27.34936523 -13.79150391 27.34936523 C-12.27039243 22.51359293 -10.39155026 17.92001203 -8.35400391 13.28686523 C-8.05429688 12.59270508 -7.75458984 11.89854492 -7.44580078 11.18334961 C-6.85624027 9.8366962 -6.25079136 8.49686134 -5.62792969 7.1652832 C-4.90140672 5.58796917 -4.25842518 3.9726939 -3.63134766 2.35327148 C-1.79150391 0.34936523 -1.79150391 0.34936523 0 0 Z " fill="#8B5BCF" transform="translate(241.79150390625,181.650634765625)"/>
<path d="M0 0 C0.66 2.97 1.32 5.94 2 9 C3.32 9 4.64 9 6 9 C5.42231918 13.98183458 3.80220907 18.11592839 1.68359375 22.609375 C1.35102066 23.33011703 1.01844757 24.05085907 0.67579651 24.79344177 C-0.39713804 27.11536786 -1.47979824 29.4326147 -2.5625 31.75 C-3.29705282 33.33596077 -4.03077621 34.92230596 -4.76367188 36.5090332 C-5.84777321 38.85607403 -6.93225943 41.20292178 -8.0194397 43.54853821 C-10.73300767 49.40477098 -13.39389083 55.28257395 -16 61.1875 C-16.31912354 61.90969727 -16.63824707 62.63189453 -16.96704102 63.37597656 C-17.64647851 64.91653192 -18.32361235 66.45810316 -19 68 C-19.33 68 -19.66 68 -20 68 C-20.11214844 67.07380859 -20.11214844 67.07380859 -20.2265625 66.12890625 C-20.96807677 61.352682 -21.88181743 57.74686561 -24.75 53.8125 C-27.64785506 49.83239932 -29.51368951 45.80041808 -31.3125 41.25 C-31.56676758 40.61167236 -31.82103516 39.97334473 -32.08300781 39.31567383 C-34.12236425 34.02375196 -35.13076929 29.3615493 -35.09765625 23.69921875 C-35.09443359 22.72275391 -35.09121094 21.74628906 -35.08789062 20.74023438 C-35.07951172 19.73283203 -35.07113281 18.72542969 -35.0625 17.6875 C-35.05798828 16.66076172 -35.05347656 15.63402344 -35.04882812 14.57617188 C-35.03708184 12.05072118 -35.02065565 9.52539095 -35 7 C-33.35 6.34 -31.7 5.68 -30 5 C-29.01 5.99 -28.02 6.98 -27 8 C-26.01 7.01 -25.02 6.02 -24 5 C-23.01 5.33 -22.02 5.66 -21 6 C-20.67 5.34 -20.34 4.68 -20 4 C-13.70984108 -2.14720077 -8.37261731 -1.2716306 0 0 Z " fill="#5C48BC" transform="translate(209,212)"/>
<path d="M0 0 C0.9075 0.37125 1.815 0.7425 2.75 1.125 C5.88097015 2.30359299 5.88097015 2.30359299 8.375 1.125 C8.91125 0.75375 9.4475 0.3825 10 0 C10.99 2.31 11.98 4.62 13 7 C13.45375 6.505 13.9075 6.01 14.375 5.5 C16 4 16 4 18 4 C18.66 4.99 19.32 5.98 20 7 C22.05003955 8.19232613 22.05003955 8.19232613 24 9 C23.67 9.33 23.34 9.66 23 10 C23.0825 10.9075 23.165 11.815 23.25 12.75 C23.3623526 26.48510566 12.43564672 40.07077389 3.55859375 49.609375 C-3.08447886 55.8163375 -10.5667593 60.61183402 -19 64 C-18.41091272 59.29623863 -17.51346126 54.89079555 -16.1796875 50.34375 C-15.81238525 49.08401367 -15.44508301 47.82427734 -15.06665039 46.52636719 C-14.66972271 45.18415926 -14.27250007 43.84203853 -13.875 42.5 C-13.46909074 41.11888236 -13.06341255 39.7376968 -12.65795898 38.35644531 C-11.63931197 34.8927573 -10.61355804 31.43122186 -9.58502197 27.97045898 C-9.02929962 26.09868638 -8.47624526 24.22612226 -7.92333984 22.35351562 C-6.97627873 19.15034245 -6.02145354 15.94963033 -5.0625 12.75 C-4.78067871 11.79931641 -4.49885742 10.84863281 -4.20849609 9.86914062 C-3.94504395 8.99966797 -3.6815918 8.13019531 -3.41015625 7.234375 C-3.18465088 6.48381836 -2.95914551 5.73326172 -2.72680664 4.95996094 C-2 3 -2 3 0 0 Z " fill="#875ACD" transform="translate(300,231)"/>
<path d="M0 0 C0.78375 0.639375 1.5675 1.27875 2.375 1.9375 C4.79539281 3.98142313 4.79539281 3.98142313 7 5 C6.34 5.99 5.68 6.98 5 8 C5.18433594 8.83789062 5.36867188 9.67578125 5.55859375 10.5390625 C6.20124643 15.5779145 4.61716202 19.60555546 3.0625 24.375 C2.77181641 25.30183594 2.48113281 26.22867188 2.18164062 27.18359375 C1.46596648 29.45967218 0.73853461 31.7312573 0 34 C-3 34 -3 34 -4.6875 32.5 C-5.120625 32.005 -5.55375 31.51 -6 31 C-6.33 31.66 -6.66 32.32 -7 33 C-7.66 33 -8.32 33 -9 33 C-8.67 33.99 -8.34 34.98 -8 36 C-9.32 35.67 -10.64 35.34 -12 35 C-12 34.01 -12 33.02 -12 32 C-15.04134491 33.66924071 -15.04134491 33.66924071 -16 36 C-16 36.99 -16 37.98 -16 39 C-17.98 39.495 -17.98 39.495 -20 40 C-20.66 38.68 -21.32 37.36 -22 36 C-22.763125 36.226875 -23.52625 36.45375 -24.3125 36.6875 C-25.6428125 36.8421875 -25.6428125 36.8421875 -27 37 C-28.5625 35.625 -28.5625 35.625 -30 34 C-32.10332891 33.28552357 -32.10332891 33.28552357 -34 33 C-34.33 33.99 -34.66 34.98 -35 36 C-35.66 35.34 -36.32 34.68 -37 34 C-35.38731308 31.28775382 -33.75098126 28.62647188 -32 26 C-30.68 26.33 -29.36 26.66 -28 27 C-28 26.34 -28 25.68 -28 25 C-29.65 25 -31.3 25 -33 25 C-33.33 23.35 -33.66 21.7 -34 20 C-29.18862414 16.44376567 -24.32504144 13.43567158 -19.0390625 10.625 C-16.75734874 9.12602242 -16.75734874 9.12602242 -16.2109375 6.3125 C-16.14132812 5.549375 -16.07171875 4.78625 -16 4 C-15.01 4.99 -14.02 5.98 -13 7 C-12.67 6.34 -12.34 5.68 -12 5 C-10.68 5.66 -9.36 6.32 -8 7 C-5.00602162 4.94388244 -5.00602162 4.94388244 -3 2 C-2.34 2.33 -1.68 2.66 -1 3 C-0.67 2.01 -0.34 1.02 0 0 Z M-12 7 C-12.99 8.485 -12.99 8.485 -14 10 C-13.01 9.67 -12.02 9.34 -11 9 C-11.33 8.34 -11.66 7.68 -12 7 Z " fill="#8156CB" transform="translate(281,215)"/>
<path d="M0 0 C4.36366677 2.02199211 7.20698786 4.49233396 9 9 C9.72798272 13.65570345 9.42814156 17.14371687 7.3125 21.375 C4.1818141 24.92875157 2.22103505 26.72865183 -2.58984375 27.31640625 C-6.99873676 27.49986354 -10.07557682 27.50072922 -14 25.375 C-17.21958695 21.55174049 -18.81350798 18.49193615 -19.4375 13.5 C-18.78068806 8.24550444 -16.32378264 5.47952177 -12.875 1.625 C-8.59879627 -0.79198472 -4.79587737 -0.87401503 0 0 Z " fill="#FAF8FC" transform="translate(208,184)"/>
<path d="M0 0 C2.9375 0.8125 2.9375 0.8125 6 2 C6.33 2.99 6.66 3.98 7 5 C7.65129797 6.34090759 8.31513275 7.67592331 9 9 C-0.19559643 21.53088448 -9.94580671 32.43944212 -25 38 C-24.35949434 32.60551901 -23.16948217 27.57843397 -21.625 22.375 C-21.41617187 21.63765625 -21.20734375 20.9003125 -20.9921875 20.140625 C-19.77892082 16.01255909 -18.33806545 12.64950159 -16 9 C-15.29329272 6.30745009 -15.29329272 6.30745009 -15 4 C-13.0625 4.3125 -13.0625 4.3125 -11 5 C-10.67 5.99 -10.34 6.98 -10 8 C-8.68 7.34 -7.36 6.68 -6 6 C-5.34 7.32 -4.68 8.64 -4 10 C-2.07690578 9.96044102 -2.07690578 9.96044102 0 9 C1.78379415 6.01647106 1.78379415 6.01647106 3 3 C2.01 3 1.02 3 0 3 C0 2.01 0 1.02 0 0 Z " fill="#654DC0" transform="translate(306,257)"/>
<path d="M0 0 C3.95848905 1.60668085 6.58892368 3.38338552 9 7 C9.4775733 11.85532856 9.51341394 14.04398784 7.1875 18.375 C4.80469263 21.23436884 3.21855733 22.82080039 -0.5234375 23.37109375 C-8.24999078 23.55102718 -8.24999078 23.55102718 -12.0625 20.75 C-12.701875 19.8425 -13.34125 18.935 -14 18 C-14.45375 17.401875 -14.9075 16.80375 -15.375 16.1875 C-16.3991912 12.60283079 -16.23432361 9.46406948 -15 6 C-11.13093117 0.69959934 -6.43928314 -1.5024994 0 0 Z " fill="#4545B3" transform="translate(367,306)"/>
<path d="M0 0 C0.66 0 1.32 0 2 0 C3.83765071 3.44559508 4.04917739 6.06632103 3.875 9.875 C3.75715778 15.14647532 4.95057329 17.7308026 8 22 C8.98343532 23.01629473 9.97974585 24.02067295 11 25 C9.61019248 26.13243576 8.21285323 27.25563119 6.8125 28.375 C6.03519531 29.00148437 5.25789063 29.62796875 4.45703125 30.2734375 C0.98940278 32.71014939 -1.74173791 34 -6 34 C-6.495 32.515 -6.495 32.515 -7 31 C-8.65 31.66 -10.3 32.32 -12 33 C-12 38.28 -12 43.56 -12 49 C-12.33 49 -12.66 49 -13 49 C-13.44514681 32.61200257 -12.68697146 18.88781034 -5 4 C-4.01 4 -3.02 4 -2 4 C-1.34 2.68 -0.68 1.36 0 0 Z " fill="#7E59CA" transform="translate(186,186)"/>
<path d="M0 0 C2.206875 -0.061875 4.41375 -0.12375 6.6875 -0.1875 C8.54955078 -0.23970703 8.54955078 -0.23970703 10.44921875 -0.29296875 C15.20179198 0.09915775 17.68203836 1.68203836 21 5 C21.265625 7.2421875 21.265625 7.2421875 21.25 9.875 C21.25515625 10.73867188 21.2603125 11.60234375 21.265625 12.4921875 C20.97472927 15.23858538 20.57451262 16.73308122 19 19 C14.96854145 22.23243073 11.75578694 22.3296015 6.6875 22.1875 C3.3771875 22.0946875 3.3771875 22.0946875 0 22 C0 14.74 0 7.48 0 0 Z " fill="#4141B2" transform="translate(191,307)"/>
<path d="M0 0 C3.93622829 2.04100726 6.48209259 3.74985925 8 8 C1.84765625 8.09765625 1.84765625 8.09765625 0 8 C-0.33 7.67 -0.66 7.34 -1 7 C-3.33297433 6.95907063 -5.66705225 6.95758277 -8 7 C-8.020625 8.299375 -8.04125 9.59875 -8.0625 10.9375 C-8.07410156 11.66839844 -8.08570312 12.39929688 -8.09765625 13.15234375 C-8.20561184 15.01732141 -8.20561184 15.01732141 -7 16 C-4.66702567 16.04092937 -2.33294775 16.04241723 0 16 C-1.65 15.67 -3.3 15.34 -5 15 C-5 13.35 -5 11.7 -5 10 C-0.71 10 3.58 10 8 10 C8.3125 13.1875 8.3125 13.1875 8 17 C5.5625 19.875 5.5625 19.875 3 22 C2.67 22.33 2.34 22.66 2 23 C-3.74890379 23.69656963 -8.4284371 24.11822745 -13.25 20.6875 C-15.59521395 16.94759442 -15.82195078 12.96499773 -15.609375 8.63671875 C-14.73914465 4.87129898 -13.19737793 3.14703613 -10.06640625 0.96484375 C-6.34755403 -0.77155795 -4.09264659 -0.64962644 0 0 Z " fill="#4747B4" transform="translate(95,306)"/>
<path d="M0 0 C13.19240088 -0.49317386 13.19240088 -0.49317386 16.9296875 1.7890625 C19 4 19 4 19.4375 7.625 C19 11 19 11 17 13 C17.33916995 16.18819752 17.98593683 18.95781049 19 22 C15.6875 22.3125 15.6875 22.3125 12 22 C10.25 19.5625 10.25 19.5625 9 17 C8.01 16.67 7.02 16.34 6 16 C6 17.98 6 19.96 6 22 C4.02 22 2.04 22 0 22 C0 14.74 0 7.48 0 0 Z " fill="#4242B2" transform="translate(165,307)"/>
<path d="M0 0 C2.31 0 4.62 0 7 0 C7 7.59 7 15.18 7 23 C5.02 23 3.04 23 1 23 C-1.1171875 20.8125 -1.1171875 20.8125 -2.875 18 C-3.47054688 17.071875 -4.06609375 16.14375 -4.6796875 15.1875 C-5.11539062 14.465625 -5.55109375 13.74375 -6 13 C-6.33 16.3 -6.66 19.6 -7 23 C-8.98 23 -10.96 23 -13 23 C-13 15.74 -13 8.48 -13 1 C-7 1 -7 1 -5.1015625 2.75 C-4.61429687 3.4925 -4.12703125 4.235 -3.625 5 C-3.12226563 5.7425 -2.61953125 6.485 -2.1015625 7.25 C-1.73804688 7.8275 -1.37453125 8.405 -1 9 C-0.67 6.03 -0.34 3.06 0 0 Z " fill="#4747B4" transform="translate(396,306)"/>
<path d="M0 0 C0.515625 0.268125 1.03125 0.53625 1.5625 0.8125 C4.15274238 2.12757272 4.15274238 2.12757272 7.625 3.3125 C11 5 11 5 12.3125 7.5625 C12.6528125 8.7690625 12.6528125 8.7690625 13 10 C13.66 10.66 14.32 11.32 15 12 C13.96578347 14.8748757 13.20402975 15.87958371 10.53125 17.45703125 C9.5309375 17.90433594 8.530625 18.35164063 7.5 18.8125 C2.21425407 21.30253212 -2.36569187 24.18600266 -7.0390625 27.6796875 C-9 29 -9 29 -11 29 C-11.71435266 22.825952 -9.19019662 18.24583824 -6.625 12.8125 C-6.2125 11.91080078 -5.8 11.00910156 -5.375 10.08007812 C-3.74097526 6.54056969 -2.16692444 3.25038665 0 0 Z " fill="#423FB2" transform="translate(220,227)"/>
<path d="M0 0 C2.31 0 4.62 0 7 0 C7 7.59 7 15.18 7 23 C4.69 23 2.38 23 0 23 C0 20.36 0 17.72 0 15 C-1.98 15 -3.96 15 -6 15 C-6 17.64 -6 20.28 -6 23 C-8.31 23 -10.62 23 -13 23 C-13 15.74 -13 8.48 -13 1 C-11.02 1 -9.04 1 -7 1 C-7 3.64 -7 6.28 -7 9 C-4.69 9 -2.38 9 0 9 C0 6.03 0 3.06 0 0 Z " fill="#4848B5" transform="translate(338,306)"/>
<path d="M0 0 C0.5775 0.309375 1.155 0.61875 1.75 0.9375 C4.96273798 2.45462627 7.44278415 3 11 3 C11 3.66 11 4.32 11 5 C13.30368736 6.06652192 15.64018187 7.06421005 18 8 C18.66 7.67 19.32 7.34 20 7 C20.33 7.66 20.66 8.32 21 9 C21.99 8.67 22.98 8.34 24 8 C24 8.66 24 9.32 24 10 C23.67 10.33 23.34 10.66 23 11 C24.01691438 13.2685013 24.73920454 14.78749999 26.6875 16.375 C28 18 28 18 27.875 20.9375 C27.01136761 23.96021338 26.06261012 25.66835378 24 28 C23.34 27.01 22.68 26.02 22 25 C21.01 24.34 20.02 23.68 19 23 C17.02 23.99 17.02 23.99 15 25 C14.34 23.68 13.68 22.36 13 21 C13.66 20.34 14.32 19.68 15 19 C16.03842565 16.68351201 17.0421975 14.35096976 18 12 C17.4225 12.20625 16.845 12.4125 16.25 12.625 C13.44053958 13.0932434 12.4904956 12.2452478 10 11 C7.94603274 11.40929986 7.94603274 11.40929986 6 12 C5.01 11.67 4.02 11.34 3 11 C2.01 11.99 1.02 12.98 0 14 C-0.598125 13.649375 -1.19625 13.29875 -1.8125 12.9375 C-4.10813214 11.66695302 -4.10813214 11.66695302 -7 13 C-7.33 13.66 -7.66 14.32 -8 15 C-8.75718206 12.27414458 -9.20539321 10.58194742 -8.25 7.875 C-6.11773944 4.67660916 -4.69885136 3.23295045 -1 2 C-0.67 1.34 -0.34 0.68 0 0 Z " fill="#A164D7" transform="translate(205,164)"/>
<path d="M0 0 C1.54150391 1.24023438 1.54150391 1.24023438 3 3 C2.93896484 4.96289062 2.93896484 4.96289062 2.3359375 7.15625 C2.12420898 7.95804688 1.91248047 8.75984375 1.69433594 9.5859375 C1.46520508 10.38257813 1.23607422 11.17921875 1 12 C0.81985352 12.67289063 0.63970703 13.34578125 0.45410156 14.0390625 C-0.13171111 16.20010744 -0.75036503 18.34985761 -1.375 20.5 C-1.62266113 21.36036865 -1.87032227 22.2207373 -2.12548828 23.10717773 C-4.49538072 31.31397663 -6.90367855 39.50965306 -9.3059082 47.70703125 C-11.13453806 53.94715477 -12.96022732 60.18813772 -14.78471375 66.42947388 C-15.95680043 70.43818973 -17.13051708 74.4463949 -18.31103516 78.45263672 C-19.44453352 82.29944961 -20.56668892 86.1494716 -21.6875 90 C-22.01411621 91.10093994 -22.34073242 92.20187988 -22.67724609 93.33618164 C-24.39011164 99.25848186 -25.51952784 104.84995639 -26 111 C-28 110 -28 110 -29.22485352 107.85229492 C-30.23949485 104.1187344 -29.53439433 102.04866359 -28.40234375 98.36328125 C-28.21328461 97.73095078 -28.02422546 97.0986203 -27.82943726 96.4471283 C-27.21331653 94.39752592 -26.57554681 92.355371 -25.9375 90.3125 C-25.50831861 88.89797295 -25.08083451 87.48292983 -24.6550293 86.06738281 C-23.81777189 83.2867819 -22.97414387 80.50824781 -22.12597656 77.73095703 C-20.77578693 73.25706328 -19.52549345 68.76256539 -18.3125 64.25 C-16.72592054 58.42961262 -14.97261301 52.68009718 -13.125 46.9375 C-10.68862782 39.35723367 -8.45828599 31.73000985 -6.3125 24.0625 C-6.02713379 23.04470459 -5.74176758 22.02690918 -5.44775391 20.97827148 C-3.51412736 14.01370845 -1.72166778 7.0198259 0 0 Z " fill="#F4EFFA" transform="translate(308,186)"/>
<path d="M0 0 C1.98 0 3.96 0 6 0 C8.1171875 2.1875 8.1171875 2.1875 9.875 5 C10.47054688 5.928125 11.06609375 6.85625 11.6796875 7.8125 C12.11539062 8.534375 12.55109375 9.25625 13 10 C13.33 6.7 13.66 3.4 14 0 C15.98 0 17.96 0 20 0 C20 7.26 20 14.52 20 22 C15 22 15 22 12.76171875 19.8125 C12.07722656 18.884375 11.39273437 17.95625 10.6875 17 C9.99011719 16.071875 9.29273438 15.14375 8.57421875 14.1875 C8.05472656 13.465625 7.53523438 12.74375 7 12 C6.67 15.3 6.34 18.6 6 22 C4.02 22 2.04 22 0 22 C0 14.74 0 7.48 0 0 Z " fill="#3E3EB0" transform="translate(261,307)"/>
<path d="M0 0 C1.98 0 3.96 0 6 0 C8.31375476 5.11869768 10.55982116 10.26468444 12.75 15.4375 C13.17796875 16.44683594 13.6059375 17.45617187 14.046875 18.49609375 C15 21 15 21 15 23 C12.69 23 10.38 23 8 23 C7.67 22.34 7.34 21.68 7 21 C4.36 21 1.72 21 -1 21 C-1.33 21.66 -1.66 22.32 -2 23 C-4.31 23 -6.62 23 -9 23 C-6.90555528 14.97129525 -3.86373867 7.34110347 0 0 Z " fill="#4747B4" transform="translate(144,306)"/>
<path d="M0 0 C1.134375 0.020625 2.26875 0.04125 3.4375 0.0625 C4.39659551 2.29134145 5.35479837 4.52055968 6.3125 6.75 C6.58191406 7.37583984 6.85132813 8.00167969 7.12890625 8.64648438 C7.90311416 10.44982231 8.67043164 12.25611363 9.4375 14.0625 C9.83195312 14.97644531 10.22640625 15.89039063 10.6328125 16.83203125 C11.4375 19.0625 11.4375 19.0625 11.4375 22.0625 C9.1275 22.0625 6.8175 22.0625 4.4375 22.0625 C4.4375 21.0725 4.4375 20.0825 4.4375 19.0625 C1.4675 19.0625 -1.5025 19.0625 -4.5625 19.0625 C-4.8925 20.0525 -5.2225 21.0425 -5.5625 22.0625 C-7.5425 22.0625 -9.5225 22.0625 -11.5625 22.0625 C-7.54196612 0.1323152 -7.54196612 0.1323152 0 0 Z " fill="#4242B2" transform="translate(243.5625,306.9375)"/>
<path d="M0 0 C1.98 0 3.96 0 6 0 C7.96120967 1.96120967 7.274594 5.52144468 7.3125 8.1875 C7.34988281 9.50105469 7.38726562 10.81460937 7.42578125 12.16796875 C6.94037036 16.53666673 5.75825555 18.62766158 3 22 C0.54617866 23.22691067 -1.19984103 23.20175931 -3.9375 23.25 C-4.81277344 23.27578125 -5.68804687 23.3015625 -6.58984375 23.328125 C-9 23 -9 23 -10.75390625 21.671875 C-13.66179027 17.77038797 -13.1149817 13.43492653 -13.0625 8.8125 C-13.05798828 8.06291016 -13.05347656 7.31332031 -13.04882812 6.54101562 C-13.03706354 4.69397617 -13.01912865 2.84697787 -13 1 C-11.02 1 -9.04 1 -7 1 C-6.67 5.95 -6.34 10.9 -6 16 C-4.35 16 -2.7 16 -1 16 C-0.67 10.72 -0.34 5.44 0 0 Z " fill="#4243B2" transform="translate(123,306)"/>
<path d="M0 0 C12.1944491 -0.49270501 12.1944491 -0.49270501 15.88671875 1.765625 C18.09446534 4.09987833 18.68633329 4.85973576 18.625 8 C18.40460367 11.19276847 18.06973588 11.91547166 15.9375 14.5 C12.3957736 16.30854114 9.92556076 16.30788712 6 16 C6 17.98 6 19.96 6 22 C4.02 22 2.04 22 0 22 C0 14.74 0 7.48 0 0 Z " fill="#3C3CAF" transform="translate(300,307)"/>
<path d="M0 0 C0.33 0.99 0.66 1.98 1 3 C2.31647119 3.69937532 3.65022151 4.36729133 5 5 C5.33 5.66 5.66 6.32 6 7 C6.99 7 7.98 7 9 7 C9 7.99 9 8.98 9 10 C10.98 9.67 12.96 9.34 15 9 C16.31626692 12.61973402 17 15.09567131 17 19 C14.03 20.65 11.06 22.3 8 24 C7.67 23.01 7.34 22.02 7 21 C5.09291157 20.08571661 5.09291157 20.08571661 3 20 C2.34 20.66 1.68 21.32 1 22 C-0.65 21.01 -2.3 20.02 -4 19 C-2.84826645 16.53199953 -1.95216435 14.95216435 0 13 C-2.31 12.01 -4.62 11.02 -7 10 C-6.34 7.69 -5.68 5.38 -5 3 C-3.35 2.67 -1.7 2.34 0 2 C0 1.34 0 0.68 0 0 Z " fill="#6C4DC3" transform="translate(246,207)"/>
<path d="M0 0 C4.95 0 9.9 0 15 0 C15 1.65 15 3.3 15 5 C12.03 5 9.06 5 6 5 C6 5.99 6 6.98 6 8 C8.64 8 11.28 8 14 8 C14 9.65 14 11.3 14 13 C11.36 13 8.72 13 6 13 C6 14.32 6 15.64 6 17 C9.3 17 12.6 17 16 17 C16 18.65 16 20.3 16 22 C10.72 22 5.44 22 0 22 C0 14.74 0 7.48 0 0 Z " fill="#4142B2" transform="translate(411,307)"/>
<path d="M0 0 C3.375 -0.1875 3.375 -0.1875 7 0 C9 3 9 3 9 5 C10.65 4.34 12.3 3.68 14 3 C13.84402344 3.55429688 13.68804687 4.10859375 13.52734375 4.6796875 C13.33269531 5.40414062 13.13804687 6.12859375 12.9375 6.875 C12.74027344 7.59429687 12.54304688 8.31359375 12.33984375 9.0546875 C11.78867393 11.07273593 11.78867393 11.07273593 13 13 C12.484375 13.5775 11.96875 14.155 11.4375 14.75 C10.963125 15.4925 10.48875 16.235 10 17 C10.32380126 18.33568021 10.65657551 19.66923011 11 21 C9.5625 22.75 9.5625 22.75 8 24 C5 18.25 5 18.25 5 16 C3.68 16.99 2.36 17.98 1 19 C-0.98 18.01 -2.96 17.02 -5 16 C-5.33 16.99 -5.66 17.98 -6 19 C-7.57156655 15.8568669 -6.11705576 13.634536 -5.0625 10.375 C-4.68222656 9.18648437 -4.30195313 7.99796875 -3.91015625 6.7734375 C-3.60980469 5.85820312 -3.30945313 4.94296875 -3 4 C-2.34 4 -1.68 4 -1 4 C-0.67 2.68 -0.34 1.36 0 0 Z " fill="#9E64D6" transform="translate(305,215)"/>
<path d="M0 0 C0.99 0.33 1.98 0.66 3 1 C2.55777157 7.74204391 0.58720419 12.69016008 -2.4375 18.6875 C-3.24988538 20.33665516 -4.06111884 21.98637836 -4.87109375 23.63671875 C-5.2460498 24.3951709 -5.62100586 25.15362305 -6.00732422 25.93505859 C-7.11991102 28.24943616 -8.10319791 30.59382609 -9 33 C-9.33 32.34 -9.66 31.68 -10 31 C-11.98 31.66 -13.96 32.32 -16 33 C-15.79375 32.278125 -15.5875 31.55625 -15.375 30.8125 C-14.94047789 27.55358415 -15.58319331 25.91695496 -17 23 C-19.64 22.67 -22.28 22.34 -25 22 C-25 21.67 -25 21.34 -25 21 C-24.25234375 20.91363281 -23.5046875 20.82726562 -22.734375 20.73828125 C-16.51223829 19.99065513 -16.51223829 19.99065513 -11.5 16.5625 C-11.005 15.716875 -10.51 14.87125 -10 14 C-9.443125 13.505 -8.88625 13.01 -8.3125 12.5 C-6.54156944 10.47607936 -6.35421755 8.62120986 -6 6 C-4.68 5.67 -3.36 5.34 -2 5 C-1.855625 4.360625 -1.71125 3.72125 -1.5625 3.0625 C-1 1 -1 1 0 0 Z " fill="#895ECE" transform="translate(225,190)"/>
<path d="M0 0 C4.25331827 0.86802414 6.18199992 2.40158324 9.0625 5.625 C9.64489453 9.77456101 9.61116881 13.18429711 7.0625 16.625 C3.84294012 18.92468563 0.93690468 19.17848638 -2.9375 18.625 C-5.79551731 16.63681405 -7.55651083 15.14895669 -8.421875 11.6875 C-8.69476358 7.68513415 -8.18016331 5.9675835 -5.8125 2.625 C-2.9375 0.625 -2.9375 0.625 0 0 Z " fill="#B06EDD" transform="translate(317.9375,160.375)"/>
<path d="M0 0 C8.44430279 0.51755404 16.68086307 1.4560881 25 3 C24.690625 4.175625 24.690625 4.175625 24.375 5.375 C24.25125 6.24125 24.1275 7.1075 24 8 C24.66 8.66 25.32 9.32 26 10 C24.4375 12.5625 24.4375 12.5625 22 15 C18.58706205 14.88231248 16.05965373 14.52982686 13 13 C12.67 13.66 12.34 14.32 12 15 C8.63279613 13.60667426 7.0140476 12.0210714 5 9 C5.33 8.34 5.66 7.68 6 7 C5.38125 6.95875 4.7625 6.9175 4.125 6.875 C3.42375 6.58625 2.7225 6.2975 2 6 C1.26697386 4.02335711 0.59543967 2.02234914 0 0 Z " fill="#A266D7" transform="translate(259,184)"/>
<path d="M0 0 C3.63 0.33 7.26 0.66 11 1 C11.66 3.97 12.32 6.94 13 10 C14.32 10 15.64 10 17 10 C16.40895235 14.84659077 15.02055843 18.60748167 13 23 C10.69 22.01 8.38 21.02 6 20 C5.67 20.99 5.34 21.98 5 23 C4.34 23 3.68 23 3 23 C2.67 21.35 2.34 19.7 2 18 C2.99 17.34 3.98 16.68 5 16 C4.814375 15.4225 4.62875 14.845 4.4375 14.25 C3.95392021 11.76301821 4.37699581 10.41414122 5 8 C4.2981424 5.1490712 4.2981424 5.1490712 3 4 C3 4.66 3 5.32 3 6 C2.01 6.33 1.02 6.66 0 7 C0 4.69 0 2.38 0 0 Z " fill="#7553C6" transform="translate(198,211)"/>
<path d="M0 0 C2.9375 0.8125 2.9375 0.8125 6 2 C6.33 2.99 6.66 3.98 7 5 C7.65129797 6.34090759 8.31513275 7.67592331 9 9 C7.40143334 11.12942275 5.79652542 13.25350334 4.1875 15.375 C3.73568359 15.97828125 3.28386719 16.5815625 2.81835938 17.203125 C0.68786722 20.00231177 -1.04813965 22.0320931 -4 24 C-5 21 -5 21 -5 18 C-5.99 18.33 -6.98 18.66 -8 19 C-8 16.37886292 -7.68707555 14.49064888 -7 12 C-7.66 11.67 -8.32 11.34 -9 11 C-8.67 9.35 -8.34 7.7 -8 6 C-7.01 6.33 -6.02 6.66 -5 7 C-4.67 7.99 -4.34 8.98 -4 10 C-2.07690578 9.96044102 -2.07690578 9.96044102 0 9 C1.78379415 6.01647106 1.78379415 6.01647106 3 3 C2.01 3 1.02 3 0 3 C0 2.01 0 1.02 0 0 Z " fill="#7453C6" transform="translate(306,257)"/>
<path d="M0 0 C0.66 0 1.32 0 2 0 C-0.9444455 12.43616732 -4.48207587 24.66594306 -8.09765625 36.92089844 C-9.81090405 42.76707843 -11.47169093 48.62826293 -13.13427734 54.48901367 C-13.3658252 55.30345947 -13.59737305 56.11790527 -13.8359375 56.95703125 C-14.03751465 57.66835205 -14.2390918 58.37967285 -14.44677734 59.11254883 C-14.92759577 60.75297568 -15.45942747 62.37828241 -16 64 C-16.66 64 -17.32 64 -18 64 C-17.45340284 56.90152486 -15.86380945 50.63781223 -13.6875 43.875 C-13.04998812 41.84440661 -12.41457279 39.81315382 -11.78125 37.78125 C-11.47445313 36.79769531 -11.16765625 35.81414062 -10.8515625 34.80078125 C-9.35904984 29.8919208 -8.08176192 24.93420779 -6.82421875 19.9609375 C-6.05526287 17.19852727 -5.07070741 14.6556916 -4 12 C-3.17788538 9.12063206 -2.43169053 6.22748453 -1.68359375 3.328125 C-1 1 -1 1 0 0 Z " fill="#916DD1" transform="translate(293,233)"/>
<path d="M0 0 C2.31 0 4.62 0 7 0 C7 7.59 7 15.18 7 23 C4.69 23 2.38 23 0 23 C0 15.41 0 7.82 0 0 Z " fill="#4F4FB7" transform="translate(219,306)"/>
<path d="M0 0 C2.90542812 1.3024333 4.8092961 2.70886268 7 5 C5.61019248 6.13243576 4.21285323 7.25563119 2.8125 8.375 C2.03519531 9.00148437 1.25789063 9.62796875 0.45703125 10.2734375 C-3.01059722 12.71014939 -5.74173791 14 -10 14 C-10.33 13.01 -10.66 12.02 -11 11 C-12.65 11.66 -14.3 12.32 -16 13 C-16 18.28 -16 23.56 -16 29 C-16.33 29 -16.66 29 -17 29 C-17.08685287 25.70849875 -17.14033895 22.4172904 -17.1875 19.125 C-17.21263672 18.18785156 -17.23777344 17.25070313 -17.26367188 16.28515625 C-17.27333984 15.38925781 -17.28300781 14.49335938 -17.29296875 13.5703125 C-17.3086792 12.74289551 -17.32438965 11.91547852 -17.34057617 11.06298828 C-17.22818604 10.38220215 -17.1157959 9.70141602 -17 9 C-16.01 8.34 -15.02 7.68 -14 7 C-12.68 7.66 -11.36 8.32 -10 9 C-9.195625 8.1646875 -9.195625 8.1646875 -8.375 7.3125 C-5.69667448 4.70465673 -2.89268956 2.366746 0 0 Z " fill="#7152C5" transform="translate(190,206)"/>
<path d="M0 0 C3.25 0.875 3.25 0.875 4.25 1.875 C4.63530653 5.88218792 4.62615621 8.20949285 2.625 11.75 C-0.19287976 14.27126084 -2.02830274 14.62124791 -5.75 14.875 C-7.89978703 12.54606405 -8.71248682 11.09538995 -9.25 7.9375 C-8.75 4.875 -8.75 4.875 -6.6875 1.9375 C-3.75 -0.125 -3.75 -0.125 0 0 Z " fill="#4846B5" transform="translate(231.75,281.125)"/>
<path d="M0 0 C1.99954746 -0.04254356 4.00041636 -0.04080783 6 0 C7.96120967 1.96120967 7.274594 5.52144468 7.3125 8.1875 C7.34988281 9.50105469 7.38726562 10.81460937 7.42578125 12.16796875 C6.91797673 16.73820945 5.7919241 18.4591574 3 22 C0.5625 21.625 0.5625 21.625 -2 21 C-2.33 20.34 -2.66 19.68 -3 19 C-2.01 17.515 -2.01 17.515 -1 16 C-0.69933846 13.24582682 -0.49074701 10.57354853 -0.375 7.8125 C-0.33632812 7.06291016 -0.29765625 6.31332031 -0.2578125 5.54101562 C-0.16371784 3.69440801 -0.08077681 1.8472381 0 0 Z " fill="#4C4CB6" transform="translate(123,306)"/>
<path d="M0 0 C1.52099609 1.31347656 1.52099609 1.31347656 3 3 C2.6640625 5.984375 2.6640625 5.984375 1.625 9.75 C1.44163086 10.43304199 1.25826172 11.11608398 1.06933594 11.81982422 C-0.13932053 16.22860726 -1.48369413 20.59440552 -2.8359375 24.9609375 C-3.15127441 25.9809082 -3.46661133 27.00087891 -3.79150391 28.05175781 C-4.42174217 30.0725014 -5.06177489 32.0902209 -5.71240234 34.10449219 C-7.21411282 38.86058993 -8.44261097 42.94402088 -8 48 C-10 47 -10 47 -11.22924805 44.86767578 C-12.2531645 41.05807088 -11.48342077 38.87525442 -10.33203125 35.1171875 C-10.13655197 34.46227325 -9.94107269 33.80735901 -9.7396698 33.13259888 C-9.11216832 31.04187965 -8.46303802 28.95865276 -7.8125 26.875 C-7.39368452 25.49785044 -6.97635251 24.12024881 -6.56054688 22.7421875 C-5.95057406 20.72246153 -5.33925033 18.70325094 -4.72122192 16.68597412 C-3.02812822 11.15482675 -1.47400711 5.59309966 0 0 Z " fill="#ECE9F7" transform="translate(290,249)"/>
<path d="M0 0 C0.33 2.64 0.66 5.28 1 8 C-0.65 8.66 -2.3 9.32 -4 10 C-1.03 10.495 -1.03 10.495 2 11 C2 11.33 2 11.66 2 12 C-0.64 12 -3.28 12 -6 12 C-6.33 12.99 -6.66 13.98 -7 15 C-8.98 15 -10.96 15 -13 15 C-12.00956295 10.16371695 -11.04301154 5.52381127 -9 1 C-8.01 1 -7.02 1 -6 1 C-4 0 -4 0 0 0 Z " fill="#4B4AB5" transform="translate(245,314)"/>
<path d="M0 0 C2.59508006 3.81629421 1.78094444 6.60340278 1 11 C0.45946053 13.19777608 -0.12249802 15.38571623 -0.7421875 17.5625 C-1.08636719 18.77164063 -1.43054688 19.98078125 -1.78515625 21.2265625 C-2.14480469 22.47179687 -2.50445312 23.71703125 -2.875 25 C-3.22691406 26.24523437 -3.57882812 27.49046875 -3.94140625 28.7734375 C-7.57362598 41.43894721 -7.57362598 41.43894721 -10 46 C-11.485 46.495 -11.485 46.495 -13 47 C-11.3592592 39.78937595 -9.3367837 32.78154007 -7.0625 25.75 C-4.31716036 17.24967818 -2.03871354 8.69451364 0 0 Z " fill="#AC79DC" transform="translate(305,187)"/>
<path d="M0 0 C0.66 0.33 1.32 0.66 2 1 C2.625 3.0625 2.625 3.0625 3 5 C4.32 5.33 5.64 5.66 7 6 C7 6.66 7 7.32 7 8 C5.68 7.67 4.36 7.34 3 7 C2.731875 7.598125 2.46375 8.19625 2.1875 8.8125 C1.01506533 10.97224808 -0.19369282 12.35790256 -2 14 C-2 13.34 -2 12.68 -2 12 C-2.66 12 -3.32 12 -4 12 C-4 12.99 -4 13.98 -4 15 C-5.32 15.33 -6.64 15.66 -8 16 C-8.28875 15.38125 -8.5775 14.7625 -8.875 14.125 C-9.93720042 11.86674235 -9.93720042 11.86674235 -12 10 C-11.34 9.01 -10.68 8.02 -10 7 C-9.34 7 -8.68 7 -8 7 C-7.67 6.01 -7.34 5.02 -7 4 C-5.03384339 2.9349985 -3.03273074 1.93166826 -1 1 C-0.67 0.67 -0.34 0.34 0 0 Z " fill="#6E4EC3" transform="translate(246,234)"/>
<path d="M0 0 C0.99 0.33 1.98 0.66 3 1 C2.42460686 6.20285068 0.70581107 10.23956036 -1.5625 14.875 C-2.0565332 15.90753906 -2.0565332 15.90753906 -2.56054688 16.9609375 C-3.36695361 18.6438733 -4.18254494 20.32240293 -5 22 C-5.33 22 -5.66 22 -6 22 C-6.09796875 21.34773438 -6.1959375 20.69546875 -6.296875 20.0234375 C-7.29737453 13.95390207 -7.29737453 13.95390207 -10.1875 8.625 C-12 6 -12 6 -11.75 3.625 C-11.5025 3.08875 -11.255 2.5525 -11 2 C-9.0625 2.8125 -9.0625 2.8125 -7 4 C-6.67 4.99 -6.34 5.98 -6 7 C-5.34 7 -4.68 7 -4 7 C-3.525625 6.030625 -3.05125 5.06125 -2.5625 4.0625 C-1 1 -1 1 0 0 Z " fill="#4743B4" transform="translate(195,258)"/>
<path d="M0 0 C0.99 0.66 1.98 1.32 3 2 C3.3978078 5.08301043 3.63030395 7.04690928 3 10 C0.75 12.5 0.75 12.5 -2 14 C-3.32 14 -4.64 14 -6 14 C-6 13.01 -6 12.02 -6 11 C-6.99 10.34 -7.98 9.68 -9 9 C-9.1875 5.875 -9.1875 5.875 -9 3 C-6.69 3.33 -4.38 3.66 -2 4 C-1.34 2.68 -0.68 1.36 0 0 Z " fill="#3D3DB0" transform="translate(315,309)"/>
<path d="M0 0 C1.625 1.5 1.625 1.5 3 3 C3.99 2.01 4.98 1.02 6 0 C6.66 1.98 7.32 3.96 8 6 C7.01 6 6.02 6 5 6 C5.33 6.66 5.66 7.32 6 8 C6.99 8.33 7.98 8.66 9 9 C7.875 10.5625 7.875 10.5625 6 12 C3 11.6875 3 11.6875 0 11 C-0.99 11 -1.98 11 -3 11 C-4.83832664 7.89782379 -5.47446226 5.60591321 -5 2 C-2 0 -2 0 0 0 Z " fill="#654BC0" transform="translate(179,217)"/>
<path d="M0 0 C1.8125 1.125 1.8125 1.125 3 3 C3.3125 6.0625 3.3125 6.0625 3 9 C1 11 1 11 -2.5 11.3125 C-4.2325 11.1578125 -4.2325 11.1578125 -6 11 C-8.15502531 7.76746204 -8.46856135 6.74849077 -8 3 C-5.85607122 -0.27231235 -3.76836426 -0.56525464 0 0 Z " fill="#F1F1F9" transform="translate(366,312)"/>
<path d="M0 0 C0.66 0 1.32 0 2 0 C3.09178911 3.27536732 2.93042848 4.04413619 2.00390625 7.23046875 C1.77509766 8.03291016 1.54628906 8.83535156 1.31054688 9.66210938 C1.06369141 10.49548828 0.81683594 11.32886719 0.5625 12.1875 C0.31951172 13.03248047 0.07652344 13.87746094 -0.17382812 14.74804688 C-0.77493493 16.8342411 -1.38647834 18.91742301 -2 21 C-3.5625 19.1875 -3.5625 19.1875 -5 17 C-4.67 16.01 -4.34 15.02 -4 14 C-4.845625 13.278125 -5.69125 12.55625 -6.5625 11.8125 C-9 9 -9 9 -8.8125 6.1875 C-8.544375 5.465625 -8.27625 4.74375 -8 4 C-6.02 4 -4.04 4 -2 4 C-1.34 2.68 -0.68 1.36 0 0 Z " fill="#A269D7" transform="translate(290,206)"/>
<path d="M0 0 C2 2 2 2 2.25 5.5 C2 9 2 9 0 11 C-2.84602594 11.36487512 -4.3864306 11.40199375 -6.8125 9.8125 C-8.42525784 7.35092224 -8.4334014 5.88934264 -8 3 C-5.84871852 -0.2835349 -3.77529378 -0.48401202 0 0 Z " fill="#7B7AC9" transform="translate(286,353)"/>
<path d="M0 0 C6.75 0.75 6.75 0.75 9 3 C9.36023622 5.80984248 9.38332602 7.38241919 7.875 9.8125 C5.22464043 11.49106106 3.06753576 11.20450238 0 11 C0 7.37 0 3.74 0 0 Z " fill="#E6E6F5" transform="translate(197,312)"/>
<path d="M0 0 C5.56818182 0.56818182 5.56818182 0.56818182 7 2 C7.25 5.4375 7.25 5.4375 7 9 C4 11 4 11 1.375 10.6875 C-1 10 -1 10 -2 9 C-2.1875 5.5625 -2.1875 5.5625 -2 2 C-1.34 1.34 -0.68 0.68 0 0 Z " fill="#6F6FC4" transform="translate(254,353)"/>
<path d="M0 0 C0.33 0.33 0.66 0.66 1 1 C2.34747084 1.23075082 3.70377565 1.41153063 5.0625 1.5625 C6.361875 1.706875 7.66125 1.85125 9 2 C9 2.66 9 3.32 9 4 C4.71 4 0.42 4 -4 4 C-4 5.65 -4 7.3 -4 9 C-2.02 9 -0.04 9 2 9 C1.67 9.66 1.34 10.32 1 11 C-2.375 11.125 -2.375 11.125 -6 11 C-8 9 -8 9 -8.3125 6.0625 C-8 3 -8 3 -6.8125 1.125 C-4.41409825 -0.36366316 -2.77193929 -0.29178308 0 0 Z " fill="#EBEBF6" transform="translate(94,312)"/>
<path d="M0 0 C3.29714793 0.32971479 4.6226839 0.6226839 7 3 C6.625 6.125 6.625 6.125 6 9 C3.125 9.625 3.125 9.625 0 10 C-2 8 -2 8 -2.25 5 C-2 2 -2 2 0 0 Z " fill="#B374DE" transform="translate(209,133)"/>
<path d="M0 0 C0.99 0 1.98 0 3 0 C3.99 1.98 4.98 3.96 6 6 C6.33 4.02 6.66 2.04 7 0 C7.66 0 8.32 0 9 0 C9 3.63 9 7.26 9 11 C8.01 11 7.02 11 6 11 C5.34 9.68 4.68 8.36 4 7 C3.67 8.32 3.34 9.64 3 11 C2.01 11 1.02 11 0 11 C0 7.37 0 3.74 0 0 Z " fill="#7D7DCA" transform="translate(237,353)"/>
<path d="M0 0 C2.64 0 5.28 0 8 0 C8 0.66 8 1.32 8 2 C6.35 2 4.7 2 3 2 C3 2.99 3 3.98 3 5 C4.32 5.33 5.64 5.66 7 6 C5.68 6 4.36 6 3 6 C3 6.99 3 7.98 3 9 C4.65 9 6.3 9 8 9 C8 9.66 8 10.32 8 11 C5.36 11 2.72 11 0 11 C0 7.37 0 3.74 0 0 Z " fill="#8181CB" transform="translate(195,353)"/>
<path d="M0 0 C0.99 0.33 1.98 0.66 3 1 C4.33106622 1.34227417 5.66400079 1.67751743 7 2 C6.625 4.9375 6.625 4.9375 6 8 C5.01 8.495 5.01 8.495 4 9 C1.875 8.0625 1.875 8.0625 0 7 C-0.33 7.99 -0.66 8.98 -1 10 C-1.66 10 -2.32 10 -3 10 C-3.33 8.35 -3.66 6.7 -4 5 C-3.01 4.34 -2.02 3.68 -1 3 C-0.67 2.01 -0.34 1.02 0 0 Z " fill="#6A4CC2" transform="translate(204,224)"/>
<path d="M0 0 C1.2375 0.1546875 1.2375 0.1546875 2.5 0.3125 C3.16 1.3025 3.82 2.2925 4.5 3.3125 C2.52 3.3125 0.54 3.3125 -1.5 3.3125 C-1.5 4.9625 -1.5 6.6125 -1.5 8.3125 C-0.18 8.3125 1.14 8.3125 2.5 8.3125 C2.83 7.6525 3.16 6.9925 3.5 6.3125 C2.84 5.9825 2.18 5.6525 1.5 5.3125 C2.82 5.3125 4.14 5.3125 5.5 5.3125 C5.5 7.2925 5.5 9.2725 5.5 11.3125 C4.22125 11.374375 2.9425 11.43625 1.625 11.5 C0.90570313 11.53480469 0.18640625 11.56960938 -0.5546875 11.60546875 C-1.19664062 11.50878906 -1.83859375 11.41210938 -2.5 11.3125 C-4.80163882 7.86004176 -4.84490322 6.36511287 -4.5 2.3125 C-2.5 0.3125 -2.5 0.3125 0 0 Z " fill="#6C6CC3" transform="translate(298.5,352.6875)"/>
<path d="M0 0 C1.98 0 3.96 0 6 0 C6 3.63 6 7.26 6 11 C5.34 10.34 4.68 9.68 4 9 C3.01 9.33 2.02 9.66 1 10 C-0.60725635 6.78548731 -0.05748185 3.56387464 0 0 Z " fill="#3B3BAF" transform="translate(110,307)"/>
<path d="M0 0 C2.07416685 3.05024537 2.13418847 5.26575218 1.4921875 8.8515625 C0.47883861 13.27491085 -0.7462966 17.63963534 -2 22 C-2.99 21.34 -3.98 20.68 -5 20 C-3.33333333 13.33333333 -1.66666667 6.66666667 0 0 Z " fill="#BA82E1" transform="translate(305,187)"/>
<path d="M0 0 C1.875 0.25 1.875 0.25 4 1 C5.125 2.8125 5.125 2.8125 6 5 C6.37125 5.7425 6.7425 6.485 7.125 7.25 C7.41375 7.8275 7.7025 8.405 8 9 C7.01 8.67 6.02 8.34 5 8 C4.67 8.66 4.34 9.32 4 10 C0.63279613 8.60667426 -0.9859524 7.0210714 -3 4 C-2.01 2.68 -1.02 1.36 0 0 Z " fill="#985FD4" transform="translate(267,189)"/>
<path d="M0 0 C1.32 0.66 2.64 1.32 4 2 C4 4.97 4 7.94 4 11 C2.35 11 0.7 11 -1 11 C-1.0270043 9.54176788 -1.04639787 8.08339325 -1.0625 6.625 C-1.07410156 5.81289063 -1.08570313 5.00078125 -1.09765625 4.1640625 C-1 2 -1 2 0 0 Z " fill="#3838AE" transform="translate(384,317)"/>
<path d="M0 0 C0.33 0 0.66 0 1 0 C0.46048934 6.68993219 -0.88706171 12.63460728 -3 19 C-3.66 19 -4.32 19 -5 19 C-3.79310345 3.79310345 -3.79310345 3.79310345 0 0 Z " fill="#6D61C3" transform="translate(280,278)"/>
<path d="M0 0 C0.33 0.66 0.66 1.32 1 2 C1.66 2 2.32 2 3 2 C3.05406122 3.93719378 3.09282025 5.87481921 3.125 7.8125 C3.14820313 8.89144531 3.17140625 9.97039062 3.1953125 11.08203125 C3 14 3 14 1 17 C0.731875 15.865625 0.46375 14.73125 0.1875 13.5625 C-0.204375 12.386875 -0.59625 11.21125 -1 10 C-1.99 9.67 -2.98 9.34 -4 9 C-3 7 -3 7 -1.4375 5.0625 C0.28589633 3.00880478 0.28589633 3.00880478 0 0 Z " fill="#9E68D6" transform="translate(322,229)"/>
<path d="M0 0 C1.9375 0.8125 1.9375 0.8125 4 2 C5.04449911 5.13349732 4.93423645 5.98968256 4 9 C3.34 9 2.68 9 2 9 C1.67 8.34 1.34 7.68 1 7 C0.67 7.66 0.34 8.32 0 9 C-0.66 9 -1.32 9 -2 9 C-2.33 10.32 -2.66 11.64 -3 13 C-3.66 13 -4.32 13 -5 13 C-3.58192622 8.52761347 -1.88695626 4.28853694 0 0 Z " fill="#785CC8" transform="translate(233,196)"/>
<path d="M0 0 C0.33 0 0.66 0 1 0 C0.46048934 6.68993219 -0.88706171 12.63460728 -3 19 C-3.99 18.67 -4.98 18.34 -6 18 C-4.41039668 11.76559832 -2.72399099 5.83712355 0 0 Z " fill="#8270CB" transform="translate(285,261)"/>
<path d="M0 0 C0 2.31 0 4.62 0 7 C-1.32 7 -2.64 7 -4 7 C-4.33 6.34 -4.66 5.68 -5 5 C-5.99 5.33 -6.98 5.66 -8 6 C-8.33 4.35 -8.66 2.7 -9 1 C-8.01 1 -7.02 1 -6 1 C-4 0 -4 0 0 0 Z " fill="#4B4AB6" transform="translate(245,314)"/>
<path d="M0 0 C0.66 0 1.32 0 2 0 C2.33 0.66 2.66 1.32 3 2 C3.99 2.33 4.98 2.66 6 3 C6.33 2.01 6.66 1.02 7 0 C7.66 0 8.32 0 9 0 C8.690625 0.70125 8.38125 1.4025 8.0625 2.125 C6.96697322 5.08936657 6.43577008 7.87698108 6 11 C5.01 11 4.02 11 3 11 C0.85714286 3.57142857 0.85714286 3.57142857 0 0 Z " fill="#7E7FCA" transform="translate(309,353)"/>
<path d="M0 0 C2.31 0 4.62 0 7 0 C7 0.66 7 1.32 7 2 C6.34 2.66 5.68 3.32 5 4 C5 4.99 5 5.98 5 7 C4.67 7.99 4.34 8.98 4 10 C1.4375 7.8125 1.4375 7.8125 -1 5 C-0.8125 2.1875 -0.8125 2.1875 0 0 Z " fill="#9960D4" transform="translate(282,210)"/>
<path d="M0 0 C1.134375 0.020625 2.26875 0.04125 3.4375 0.0625 C2.7775 2.0425 2.1175 4.0225 1.4375 6.0625 C-0.21864657 6.44468767 -1.88707024 6.77645102 -3.5625 7.0625 C-4.5625 6.0625 -4.5625 6.0625 -4.6875 3.5625 C-4.4904197 -0.37910609 -4.10054684 0.07193942 0 0 Z " fill="#E2E2F3" transform="translate(300.5625,354.9375)"/>
<path d="M0 0 C0.5775 0.680625 1.155 1.36125 1.75 2.0625 C2.4925 2.701875 3.235 3.34125 4 4 C6.21858253 3.86358623 6.21858253 3.86358623 8 3 C8.33 4.65 8.66 6.3 9 8 C5.7 7.67 2.4 7.34 -1 7 C-1.625 4.625 -1.625 4.625 -2 2 C-1.34 1.34 -0.68 0.68 0 0 Z " fill="#6B4DC2" transform="translate(251,247)"/>
<path d="M0 0 C0.66 0 1.32 0 2 0 C2 1.65 2 3.3 2 5 C3.65 5 5.3 5 7 5 C7.33 3.68 7.66 2.36 8 1 C8 3.97 8 6.94 8 10 C7.67 8.68 7.34 7.36 7 6 C5.35 6 3.7 6 2 6 C2 7.65 2 9.3 2 11 C1.34 11 0.68 11 0 11 C0 7.37 0 3.74 0 0 Z " fill="#5D5DBD" transform="translate(223,353)"/>
<path d="M0 0 C2.64 0 5.28 0 8 0 C8 0.66 8 1.32 8 2 C7.01 2 6.02 2 5 2 C5 4.97 5 7.94 5 11 C4.34 11 3.68 11 3 11 C3 8.03 3 5.06 3 2 C2.01 2 1.02 2 0 2 C0 1.34 0 0.68 0 0 Z " fill="#7171C5" transform="translate(182,353)"/>
<path d="M0 0 C2.0625 0.4375 2.0625 0.4375 4 1 C4 2.65 4 4.3 4 6 C2.125 6.625 2.125 6.625 0 7 C-0.66 6.34 -1.32 5.68 -2 5 C-1.46428571 1.46428571 -1.46428571 1.46428571 0 0 Z " fill="#F1F1F9" transform="translate(282,355)"/>
<path d="M0 0 C1.65 0 3.3 0 5 0 C5.38218767 1.65614657 5.71395102 3.32457024 6 5 C5 6 5 6 2.4375 6.0625 C1.2309375 6.0315625 1.2309375 6.0315625 0 6 C0 4.02 0 2.04 0 0 Z " fill="#E2E2F3" transform="translate(306,312)"/>
<path d="M0 0 C1.125 3.75 1.125 3.75 0 6 C0.66 6 1.32 6 2 6 C1.67 9.63 1.34 13.26 1 17 C-1 16 -1 16 -2.2109375 13.80078125 C-3.18033251 10.35990887 -2.68505516 8.57152224 -1.625 5.1875 C-1.32851563 4.21167969 -1.03203125 3.23585938 -0.7265625 2.23046875 C-0.36691406 1.12638672 -0.36691406 1.12638672 0 0 Z " fill="#E2DFF3" transform="translate(281,280)"/>
<path d="M0 0 C1.25541557 3.76624671 0.37061958 5.37188934 -1 9 C-1.433125 8.525625 -1.86625 8.05125 -2.3125 7.5625 C-4.02309613 5.76313043 -4.02309613 5.76313043 -7 5 C-6.34 3.68 -5.68 2.36 -5 1 C-4.01 1.33 -3.02 1.66 -2 2 C-1.34 1.34 -0.68 0.68 0 0 Z " fill="#7957C8" transform="translate(279,249)"/>
<path d="M0 0 C2.0625 0.4375 2.0625 0.4375 4 1 C4 2.65 4 4.3 4 6 C2.35 6.33 0.7 6.66 -1 7 C-1.04254356 5.00045254 -1.04080783 2.99958364 -1 1 C-0.67 0.67 -0.34 0.34 0 0 Z " fill="#F4F4FA" transform="translate(255,355)"/>
<path d="M0 0 C0.66 0 1.32 0 2 0 C2 2.97 2 5.94 2 9 C3.32 9 4.64 9 6 9 C6 9.66 6 10.32 6 11 C4.02 11 2.04 11 0 11 C0 7.37 0 3.74 0 0 Z " fill="#6D6DC3" transform="translate(267,353)"/>
<path d="M0 0 C0.99 0.33 1.98 0.66 3 1 C2.625 3.4375 2.625 3.4375 2 6 C1.01 6.495 1.01 6.495 0 7 C-0.33 7.99 -0.66 8.98 -1 10 C-1.66 10 -2.32 10 -3 10 C-3.36629408 5.72656908 -2.40814077 3.51187196 0 0 Z " fill="#7150C5" transform="translate(178,202)"/>
<path d="M0 0 C1.65 0 3.3 0 5 0 C5.33 1.65 5.66 3.3 6 5 C4.02 5 2.04 5 0 5 C0 3.35 0 1.7 0 0 Z " fill="#EEEDF8" transform="translate(171,312)"/>
<path d="M0 0 C0.66 0.33 1.32 0.66 2 1 C2.33 1.99 2.66 2.98 3 4 C2.01 5.485 2.01 5.485 1 7 C-0.32 6.67 -1.64 6.34 -3 6 C-2.42655063 3.13275314 -2.1385485 2.1385485 0 0 Z " fill="#4B41B6" transform="translate(181,248)"/>
<path d="M0 0 C0.33 0 0.66 0 1 0 C1.125 2.375 1.125 2.375 1 5 C-1 7 -1 7 -3.5 7.3125 C-4.325 7.209375 -5.15 7.10625 -6 7 C-6.66 6.01 -7.32 5.02 -8 4 C-7.01 4 -6.02 4 -5 4 C-2.8817921 3.76230794 -2.8817921 3.76230794 -1 3 C-0.67 2.01 -0.34 1.02 0 0 Z " fill="#6A6BC2" transform="translate(287,357)"/>
<path d="M0 0 C1.32 0 2.64 0 4 0 C4 1.98 4 3.96 4 6 C1.36 6 -1.28 6 -4 6 C-2 4 -2 4 1 3 C1.33 2.34 1.66 1.68 2 1 C1.34 0.67 0.68 0.34 0 0 Z " fill="#7878C8" transform="translate(300,358)"/>
<path d="M0 0 C2.31 0 4.62 0 7 0 C7.33 0.99 7.66 1.98 8 3 C5.36 3 2.72 3 0 3 C0 2.01 0 1.02 0 0 Z " fill="#EDEDF8" transform="translate(417,312)"/>
<path d="M0 0 C0.99 0.66 1.98 1.32 3 2 C2.34 4.97 1.68 7.94 1 11 C0.01 10.34 -0.98 9.68 -2 9 C-1.34 6.03 -0.68 3.06 0 0 Z " fill="#C292E5" transform="translate(302,198)"/>
<path d="M0 0 C1.65 0 3.3 0 5 0 C5 1.32 5 2.64 5 4 C3.02 4 1.04 4 -1 4 C-0.67 2.68 -0.34 1.36 0 0 Z " fill="#3A3AAF" transform="translate(421,324)"/>
<path d="M0 0 C2.50298434 2.93828597 3.46930939 5.17902761 4 9 C3.01 9 2.02 9 1 9 C0.01 6.36 -0.98 3.72 -2 1 C-1.34 0.67 -0.68 0.34 0 0 Z " fill="#664BC0" transform="translate(234,202)"/>
<path d="M0 0 C0.66 0 1.32 0 2 0 C2.1875 2.8125 2.1875 2.8125 2 6 C1.01 6.99 0.02 7.98 -1 9 C-0.67 6.03 -0.34 3.06 0 0 Z " fill="#F9F7FC" transform="translate(292,244)"/>
<path d="M0 0 C1 4 1 4 0 6 C0.66 6 1.32 6 2 6 C1.67 7.65 1.34 9.3 1 11 C0.67 10.34 0.34 9.68 0 9 C-0.66 9 -1.32 9 -2 9 C-1.34 6.03 -0.68 3.06 0 0 Z " fill="#E6DDF4" transform="translate(294,235)"/>
<path d="M0 0 C0.33 0.66 0.66 1.32 1 2 C1.66 2 2.32 2 3 2 C2.1875 4.4375 2.1875 4.4375 1 7 C0.01 7.33 -0.98 7.66 -2 8 C-1.34 5.36 -0.68 2.72 0 0 Z " fill="#AD89DC" transform="translate(294,226)"/>
<path d="M0 0 C0.66 0 1.32 0 2 0 C2.33 1.98 2.66 3.96 3 6 C1.68 6 0.36 6 -1 6 C-0.67 4.02 -0.34 2.04 0 0 Z " fill="#D6D5EE" transform="translate(146,315)"/>
<path d="M0 0 C0.33 0 0.66 0 1 0 C0.67 2.97 0.34 5.94 0 9 C-0.66 9 -1.32 9 -2 9 C-1.125 1.125 -1.125 1.125 0 0 Z " fill="#785EC7" transform="translate(285,261)"/>
<path d="M0 0 C2 2 2 2 2 6 C0.68 6 -0.64 6 -2 6 C-1.34 4.02 -0.68 2.04 0 0 Z " fill="#DDDCF1" transform="translate(243,315)"/>
<path d="M0 0 C0.66 0.33 1.32 0.66 2 1 C-0.12055614 4.1808342 -1.63050557 5.31525278 -5 7 C-5.66 6.67 -6.32 6.34 -7 6 C-4.69 4.02 -2.38 2.04 0 0 Z " fill="#B681E0" transform="translate(204,163)"/>
</svg>
